<svg width="256" height="256" viewBox="0 0 256 256" fill="none" xmlns="http://www.w3.org/2000/svg">
<path d="M242.087 161.391V167.752C242.087 216.49 202.577 256 153.839 256H104.547V217.839H128.795H153.044C181.145 217.839 203.925 195.058 203.925 166.957V162.186C203.925 134.085 181.145 111.304 153.044 111.304H104.547V73.1429H153.839C202.577 73.1429 242.087 112.653 242.087 161.391Z" fill="#FF3E00"/>
<path d="M242.087 161.391V167.752C242.087 216.49 202.577 256 153.839 256H104.547V217.839H128.795H153.044C181.145 217.839 203.925 195.058 203.925 166.957V162.186C203.925 134.085 181.145 111.304 153.044 111.304H104.547V73.1429H153.839C202.577 73.1429 242.087 112.653 242.087 161.391Z" fill="#41B883"/>
<path d="M41.7391 256H151.453V217.839H62.4099V182.857H151.453V144.696H41.7391C32.5183 144.696 25.0434 152.171 25.0434 161.391V239.304C25.0434 248.525 32.5183 256 41.7391 256Z" fill="#00D8FF"/>
<path d="M13.913 94.6087V88.2484C13.913 39.5102 53.4232 0 102.161 0H151.453V38.1615H127.205H102.956C74.8551 38.1615 52.0745 60.9421 52.0745 89.0435V93.8137C52.0745 121.915 74.8551 144.696 102.956 144.696H151.453V182.857H102.161C53.4232 182.857 13.913 143.347 13.913 94.6087Z" fill="#F7DF1E"/>
<path d="M214.261 0H104.547V38.1615H193.59V73.1429H104.547V111.304H214.261C223.482 111.304 230.957 103.829 230.957 94.6087V16.6957C230.957 7.4749 223.482 0 214.261 0Z" fill="#FF3E00"/>
</svg>
